Coordinates
version=1
nRows=5
nColumns=40
inDegrees=yes

Units are S.I. units (second, meters, Newtons, ...)
Angles are in degrees.

endheader
time	pelvis_tilt	pelvis_list	pelvis_rotation	pelvis_tx	pelvis_ty	pelvis_tz	hip_flexion_r	hip_adduction_r	hip_rotation_r	knee_angle_r	knee_angle_r_beta	ankle_angle_r	subtalar_angle_r	mtp_angle_r	hip_flexion_l	hip_adduction_l	hip_rotation_l	knee_angle_l	knee_angle_l_beta	ankle_angle_l	subtalar_angle_l	mtp_angle_l	lumbar_extension	lumbar_bending	lumbar_rotation	arm_flex_r	arm_add_r	arm_rot_r	elbow_flex_r	pro_sup_r	wrist_flex_r	wrist_dev_r	arm_flex_l	arm_add_l	arm_rot_l	elbow_flex_l	pro_sup_l	wrist_flex_l	wrist_dev_l
     44.32000000	     -3.04270848	     -5.32310331	      5.80808909	      1.08629359	      0.92875139	      0.47656032	     14.07309257	      2.44303143	    -14.58309007	     19.13460250	     19.13460250	     10.03873958	     -4.10179567	     -4.10905630	     32.96426601	    -12.33194370	      4.46230737	     67.05675044	     67.05675044	      4.53812246	    -18.83849107	     13.71977462	    -11.65821110	      5.93817582	      3.26391377	     15.57839396	    -15.70164766	      1.12435475	     48.98264794	     45.09871770	      0.00000000	      0.00000000	      4.81200101	     -6.26008767	     -7.20055518	     32.42595184	     45.09958302	      0.00000000	      0.00000000
     44.33114286	     -3.22143157	     -5.26741421	      6.07495786	      1.08495498	      0.92950661	      0.47750420	     13.23352421	      2.58469281	    -14.76045055	     18.25970320	     18.25970320	     10.25698953	     -3.81647595	     -4.07075516	     34.24746387	    -12.09740304	      4.12009715	     64.72279996	     64.72279996	      4.96986927	    -18.91641487	     13.78169866	    -11.62528549	      5.80723265	      2.84486449	     17.75294406	    -15.28500801	      1.10382263	     51.05700715	     45.04195497	      0.00000000	      0.00000000	      3.43412650	     -6.34152203	     -7.06069073	     31.06234465	     45.07892063	      0.00000000	      0.00000000
     44.34228571	     -3.37443847	     -5.20762967	      6.33702959	      1.08368380	      0.93023749	      0.47840094	     12.36869175	      2.72327456	    -14.96332143	     17.37769354	     17.37769354	     10.45315320	     -3.46743439	     -4.06938681	     35.25458594	    -11.82019963	      3.75794005	     62.05561857	     62.05561857	      5.30735123	    -18.94616058	     13.97767596	    -11.62577087	      5.67468767	      2.49744678	     19.79325676	    -14.95185114	      1.24366209	     53.40678413	     44.96844269	      0.00000000	      0.00000000	      2.21462616	     -6.39142259	     -6.85702960	     29.45792606	     45.05326664	      0.00000000	      0.00000000
     44.35342857	     -3.55009058	     -5.14440968	      6.56918923	      1.08241598	      0.93073738	      0.47917052	     11.55962118	      2.81965099	    -15.28754643	     16.54361749	     16.54361749	     10.56369530	     -2.95027193	     -4.42104558	     36.09905536	    -11.49488910	      3.37613402	     59.16707815	     59.16707815	      5.63524198	    -18.94505357	     14.39244409	    -11.61993855	      5.58254039	      3.02103833	     20.73543213	    -15.74480108	      2.29820991	     57.85065061	     44.80753975	      0.00000000	      0.00000000	      2.08262694	     -6.23524485	     -6.13908231	     26.23036827	     45.04215467	      0.00000000	      0.00000000
     44.36457143	     -3.73506100	     -5.05820974	      6.77168187	      1.08122744	      0.93118682	      0.47988041	     10.75610749	      2.93499879	    -15.37482150	     15.68627235	     15.68627235	     10.76341770	     -2.69451804	     -4.35207722	     36.71716361	    -11.09752905	      3.01564936	     55.98027875	     55.98027875	      5.84560982	    -18.90550555	     14.76671663	    -11.55152258	      5.41750065	      2.84672353	     22.79103096	    -15.38071095	      2.11191262	     59.65767399	     44.76864948	      0.00000000	      0.00000000	      0.86607284	     -6.25984075	     -5.98637967	     25.21058132	     45.01481412	      0.00000000	      0.00000000
